# xmcd
#
# Track frame offsets: 
#        150
#        20324
#        37669
#        61474
#        82329
#        130314
#        143968
#        161164
#        181070
#        212048
#        230511
#        250929
#
# Disc length: 3555 seconds
#
# Revision: 0
# Processed by: cddbd v1.5.1PL0 Copyright (c) Steve Scherf et al.
# Submitted via: ExactAudioCopy v0.95a3
#
DISCID=a40de10c
DTITLE=William Street Blues Band - 25th Anniversary
DYEAR=2003
DGENRE=Blues
TTITLE0=You Got Me Dizzy
TTITLE1=Both Sides Of The Fence
TTITLE2=Baby Please Don't Go
TTITLE3=River Hip Mama
TTITLE4=Doggin' Down Blues
TTITLE5=Sweet Home Chicago
TTITLE6=Leaving Your Town
TTITLE7=Mystery Train
TTITLE8=Movin' And Grovin'
TTITLE9=I Lost The Best Friend
TTITLE10=Key To The Highway
TTITLE11=I Believe
EXTD=
EXTT0=
EXTT1=
EXTT2=
EXTT3=
EXTT4=
EXTT5=
EXTT6=
EXTT7=
EXTT8=
EXTT9=
EXTT10=
EXTT11=
PLAYORDER=
